<?xml version="1.0" encoding="utf-8"?>
<!-- Svg Vector Icons : http://www.onlinewebfonts.com/icon -->
<!DOCTYPE svg PUBLIC "-//W3C//DTD SVG 1.1//EN" "http://www.w3.org/Graphics/SVG/1.1/DTD/svg11.dtd">
<svg version="1.1" xmlns="http://www.w3.org/2000/svg" xmlns:xlink="http://www.w3.org/1999/xlink" x="0px" y="0px" viewBox="0 0 1000 1000" enable-background="new 0 0 1000 1000" xml:space="preserve">
<metadata> Svg Vector Icons : http://www.onlinewebfonts.com/icon </metadata>
<g><g transform="translate(0.000000,511.000000) scale(0.100000,-0.100000)"><path d="M4845.9,4991.9c-148.8-36.7-230.3-93.7-417.7-293.4c-375-399.4-782.5-1004.6-1075.9-1593.5c-330.1-662.3-511.5-1261.4-574.6-1899.2l-24.4-238.4l-185.4-118.2c-214-134.5-493.1-401.4-623.6-595c-385.1-576.7-513.5-1351-387.2-2365.8c118.2-949.6,220.1-1218.6,523.7-1369.4c118.2-57.1,156.9-67.2,291.4-65.2c309.7,0,535.9,181.4,641.9,517.6c20.4,61.1,59.1,156.9,85.6,211.9c61.1,120.2,230.3,379,250.6,379c6.1,0,38.7-28.5,73.4-63.2c75.4-79.5,173.2-138.6,275.1-169.1l81.5-24.5l6.1-213.9c10.2-356.6,112.1-660.2,342.3-1010.7c165-248.6,387.2-503.3,607.2-688.8c220.1-187.5,248.6-203.8,319.9-165c89.7,46.9,385.1,315.8,540,493.1c187.5,212,391.3,517.6,472.8,715.3c99.8,234.3,138.6,417.7,144.7,656.2l6.1,213.9l77.4,22.4c112.1,32.6,165.1,65.2,267,158.9c50.9,46.9,95.8,75.4,103.9,63.2c150.8-216,189.5-279.2,232.3-364.7c28.5-55,67.2-152.8,87.6-214c71.3-228.2,205.8-389.2,395.3-474.8c140.6-65.2,362.7-59.1,513.5,10.2c138.6,63.2,260.8,179.3,319.9,303.6c65.2,136.5,138.6,458.5,197.7,864c169.1,1171.7,59.1,1958.3-362.7,2587.9c-124.3,185.4-407.5,454.4-619.5,588.9l-185.4,116.2l-14.3,146.7c-67.2,721.4-248.6,1326.6-603.2,2031.6C6211.2,3977.1,5524.5,4869.6,5231,4967.4C5088.4,5014.3,4964.1,5022.5,4845.9,4991.9z M5210.7,4121.8c193.6-228.2,417.7-540,582.8-806.9l103.9-169.1h-896.6h-896.6l85.6,138.6c271,444.2,760.1,1078,817.1,1057.6C5021.2,4337.8,5110.8,4237.9,5210.7,4121.8z M6146,2656.6c140.6-309.7,303.6-792.7,360.7-1071.9C6669.7,788,6588.2-80,6207.1-1643l-95.8-397.4H5000.8H3892.3l-87.6,356.6C3625.3-948.1,3525.5-444.8,3448,109.5c-16.3,116.2-26.5,377-24.5,652.1c0,507.4,28.5,721.4,152.8,1149.3c67.2,240.5,238.4,678.6,342.3,884.4l63.2,126.3l1025-4.1l1022.9-6.1L6146,2656.6z M2810.2-2.6c22.4-242.5,128.4-835.5,226.2-1269.5l91.7-411.6l-146.7-169.1c-267-305.7-444.2-588.9-560.4-886.4c-65.2-175.3-67.2-173.2-128.4,134.5c-154.9,768.2-169.1,1567-34.6,2001.1c85.6,279.2,260.8,576.7,421.8,723.4C2781.7,211.4,2789.8,203.2,2810.2-2.6z M7391,44.3c319.9-379,444.2-782.5,444.2-1444.8c0-421.8-89.6-1126.9-181.3-1434.6c-18.3-55-20.4-57.1-34.6-20.4c-142.6,403.5-307.7,672.5-625.6,1033.1l-120.2,136.5l91.7,413.7c99.8,454.4,181.3,904.7,216,1188c32.6,273.1,34.6,279.2,79.5,254.7C7283,160.4,7340.1,103.4,7391,44.3z M4358.9-2776c36.7-205.8,209.9-476.8,440.2-688.7c191.5-175.3,211.9-175.3,403.5,0c230.3,211.9,403.5,482.9,440.1,688.7l14.3,73.4h173.2h175.2l-12.2-238.4c-16.3-356.6-130.4-643.9-395.3-998.5c-146.7-197.7-548.1-597.1-597-597.1c-55,0-456.5,403.5-609.3,609.3c-150.8,205.8-315.8,531.8-358.6,715.2c-16.3,73.4-30.6,218-30.6,322v187.5h171.2h171.2L4358.9-2776z M5428.7-2745.4c0-91.7-132.5-309.7-279.2-464.6l-148.7-154.9L4848-3205.9c-150.8,156.9-275.1,366.8-275.1,460.5c0,42.8,6.1,42.8,427.9,42.8C5424.6-2702.6,5428.7-2702.6,5428.7-2745.4z"/><path d="M4778.7,2157.4c-364.7-81.5-658.2-346.4-778.4-703c-63.2-185.4-63.2-468.7,0-650c260.8-754,1204.3-970,1752.5-399.4c625.6,652.1,205.8,1713.7-701,1772.8C4966.1,2183.9,4856.1,2175.7,4778.7,2157.4z M5351.3,1888.4c179.3-83.5,326-230.3,409.6-409.6c61.1-126.3,65.2-152.8,65.2-350.5c0-201.7-4.1-224.2-67.2-350.5c-315.9-643.9-1198.2-646-1516.1-2c-63.2,130.4-67.2,150.8-67.2,352.5c0,197.7,4.1,224.1,65.2,350.5c103.9,220.1,285.3,377,525.7,458.5c50.9,16.3,152.8,24.4,264.9,20.4C5188.3,1953.6,5235.1,1943.4,5351.3,1888.4z"/><path d="M4817.4,1782.5c-114.1-36.7-220.1-106-307.7-199.7c-307.7-328.1-205.8-859.9,203.8-1059.6c97.8-48.9,138.6-57.1,287.3-57.1c148.7,0,189.5,8.2,287.3,57.1c134.5,65.2,269,201.7,330.1,336.2c34.6,73.4,44.8,134.5,44.8,269c0,205.8-40.8,313.8-175.2,458.5c-130.4,142.6-258.8,199.7-456.4,205.8C4941.7,1796.7,4845.9,1792.6,4817.4,1782.5z M5137.3,1566.5c69.3-20.4,132.5-59.1,187.5-114.1c171.2-171.2,183.4-427.9,28.5-607.2c-195.6-230.3-499.2-232.3-703-6.1c-211.9,234.3-99.9,631.7,201.7,725.4C4978.4,1603.1,5013,1603.1,5137.3,1566.5z"/></g></g>
</svg>